<svg viewBox="0 0 781.01 241.4" xmlns="http://www.w3.org/2000/svg" xmlns:xlink="http://www.w3.org/1999/xlink"><clipPath id="a" transform="translate(-1 -1.8)"><path d="m1-5h255v255h-255z"/></clipPath><g clip-path="url(#a)"><g clip-path="url(#a)"><path d="m128.51 201.44a82.33 82.33 0 1 1 82.33-82.33 82.43 82.43 0 0 1 -82.33 82.33m0-151.07a68.74 68.74 0 1 0 68.74 68.74 68.81 68.81 0 0 0 -68.74-68.74" fill="#23a7bf" transform="translate(-1 -1.8)"/><path d="m125.14 134.13a54.53 54.53 0 1 1 -54.53 54.53 54.53 54.53 0 0 1 54.53-54.53" fill="#e56353" transform="translate(-1 -1.8)"/><path d="m125.14 145.33a43.34 43.34 0 1 1 -43.34 43.34 43.34 43.34 0 0 1 43.34-43.34" fill="#d15241" transform="translate(-1 -1.8)"/><path d="m55.53 1.8a54.53 54.53 0 1 1 -54.53 54.53 54.53 54.53 0 0 1 54.53-54.53" fill="#44c4a1" transform="translate(-1 -1.8)"/><path d="m55.53 13a43.34 43.34 0 1 1 -43.33 43.33 43.34 43.34 0 0 1 43.33-43.33" fill="#3ea69b" transform="translate(-1 -1.8)"/><path d="m201.47 1.8a54.53 54.53 0 1 1 -54.53 54.53 54.53 54.53 0 0 1 54.53-54.53" fill="#fcd462" transform="translate(-1 -1.8)"/><path d="m201.47 13a43.34 43.34 0 1 1 -43.34 43.34 43.34 43.34 0 0 1 43.34-43.34" fill="#f6c358" transform="translate(-1 -1.8)"/><path d="m61.17 77.11h-14.62v12h-8.34v-12h-9v-6.85h9v-6h-9v-6.83h9v-31.82h23.44q10.21 0 16.19 5.19t6 14.06q0 9.3-5.74 14.34t-16.3 5.09h-15.25v6h14.62zm-14.62-19.68h15.1q6.77 0 10.3-3.19t3.54-9.31a11.74 11.74 0 0 0 -3.67-9q-3.67-3.43-9.91-3.48h-15.36z" fill="#44c4a1" transform="translate(-1 -1.8)"/><path d="m206.14 76.06h-14.63v12h-8.34v-12h-9v-6.85h9v-6h-9v-6.83h9v-31.82h23.44q10.21 0 16.19 5.19t6 14.06q0 9.3-5.74 14.34t-16.3 5.09h-15.25v6h14.62zm-14.63-19.68h15.1q6.77 0 10.3-3.19t3.54-9.31a11.74 11.74 0 0 0 -3.67-9q-3.67-3.43-9.91-3.48h-15.36z" fill="#fcd462" transform="translate(-1 -1.8)"/><path d="m132.08 208.4h-14.62v12h-8.34v-12h-9v-6.85h9v-6h-9v-6.85h9v-31.81h23.44q10.21 0 16.19 5.19t6 14.06q0 9.3-5.74 14.34t-16.3 5.09h-15.25v6h14.62zm-14.62-19.69h15.1q6.77 0 10.3-3.19t3.54-9.31a11.74 11.74 0 0 0 -3.67-9q-3.67-3.43-9.91-3.48h-15.36z" fill="#e56353" transform="translate(-1 -1.8)"/></g></g><g fill="#424242" transform="translate(-1 -1.8)"><path d="m311.88 80.52q17 0 26 6t9.12 19.48q0 13.68-9.19 19.75t-26.26 6.07h-5.36v25.38h-17.07v-74.71a97 97 0 0 1 11.82-1.49q6.23-.48 10.94-.48zm1.12 14.55q-1.86 0-3.67.11t-3.12.22v21.88h5.36q8.86 0 13.35-2.41t4.49-9a10.77 10.77 0 0 0 -1.15-5.25 8.75 8.75 0 0 0 -3.26-3.3 14.81 14.81 0 0 0 -5.2-1.75 42.83 42.83 0 0 0 -6.8-.5z"/><path d="m404.28 157.22q-2.31-3.7-5.43-8t-6.74-8.67q-3.61-4.36-7.56-8.37a81 81 0 0 0 -7.89-7.08v32.11h-17.08v-75.81h17.07v28.5q6.58-6.9 13.35-14.47t12.54-14h20.26q-7.74 9.22-15.57 17.72t-16.49 17.12a129.92 129.92 0 0 1 17.55 18 224.76 224.76 0 0 1 16.26 23z"/><path d="m500.61 119.25a46.69 46.69 0 0 1 -2.9 17.12 35.22 35.22 0 0 1 -7.93 12.36 32.56 32.56 0 0 1 -12 7.5 43.56 43.56 0 0 1 -14.93 2.52 42.43 42.43 0 0 1 -14.66-2.52 33.68 33.68 0 0 1 -12-7.5 35 35 0 0 1 -8.1-12.36 45.88 45.88 0 0 1 -3-17.12 44.41 44.41 0 0 1 3.06-17.12 36.44 36.44 0 0 1 8.26-12.42 34 34 0 0 1 12-7.55 41.34 41.34 0 0 1 14.39-2.52 42.44 42.44 0 0 1 14.66 2.52 33.38 33.38 0 0 1 12 7.55 35.62 35.62 0 0 1 8.1 12.42 45.88 45.88 0 0 1 3.05 17.12zm-57.88 0a34.45 34.45 0 0 0 1.37 10.07 22.94 22.94 0 0 0 3.9 7.68 17.4 17.4 0 0 0 6.29 5 21.55 21.55 0 0 0 17 0 17.3 17.3 0 0 0 6.35-5 23 23 0 0 0 3.94-7.71 34.48 34.48 0 0 0 1.42-10.04 35 35 0 0 0 -1.37-10.12 23 23 0 0 0 -3.94-7.77 17.32 17.32 0 0 0 -6.35-5 19.94 19.94 0 0 0 -8.48-1.75 19.3 19.3 0 0 0 -8.53 1.81 18 18 0 0 0 -6.29 5 22.92 22.92 0 0 0 -3.94 7.77 34.61 34.61 0 0 0 -1.37 10.06z"/><path d="m558.16 157.22h-17.07v-75.82h51.75v14.44h-34.68z"/><path d="m656.08 99.67q-4.94 16.63-10.31 31.18t-11.77 28.23a64 64 0 0 1 -4.6 8.37 25.82 25.82 0 0 1 -5 5.69 17.79 17.79 0 0 1 -6.19 3.28 28 28 0 0 1 -8.05 1 32.94 32.94 0 0 1 -7.07-.71 31.6 31.6 0 0 1 -5.31-1.59l2.84-13a27.9 27.9 0 0 0 4.49 1.2 25.33 25.33 0 0 0 4.16.33q4.38 0 6.73-2.35a18.91 18.91 0 0 0 4-6.51q-5.58-10.94-11.17-24.56a306 306 0 0 1 -10.51-30.58h17.28q1.1 4.27 2.58 9.25t3.14 10.1q1.65 5.09 3.35 9.9t3.24 8.75q1.43-3.94 3-8.75t3-9.9q1.48-5.09 2.86-10.07t2.47-9.25z"/><path d="m718.23 128.44a42.14 42.14 0 0 1 -1.64 12.14 27.33 27.33 0 0 1 -4.81 9.41 21.76 21.76 0 0 1 -7.88 6.13 25.43 25.43 0 0 1 -10.83 2.19 29.22 29.22 0 0 1 -6.35-.66 30.49 30.49 0 0 1 -5.72-1.85v21.66h-16.3v-75.82q2.19-.66 5-1.26t6-1q3.12-.44 6.35-.71t6.18-.27a35.36 35.36 0 0 1 12.69 2.13 26.12 26.12 0 0 1 9.41 6 25.82 25.82 0 0 1 5.85 9.46 36.37 36.37 0 0 1 2.05 12.45zm-16.63.44q0-7.55-3.39-12.09t-10.07-4.54q-2.19 0-4 .16t-3.06.38v29.43a14.16 14.16 0 0 0 4 1.64 19.19 19.19 0 0 0 5 .66q11.52.01 11.52-15.64z"/><path d="m782 99.67q-4.94 16.63-10.31 31.18t-11.69 28.23a64 64 0 0 1 -4.6 8.37 25.82 25.82 0 0 1 -5 5.69 17.79 17.79 0 0 1 -6.19 3.28 28 28 0 0 1 -8.05 1 32.94 32.94 0 0 1 -7.07-.71 31.6 31.6 0 0 1 -5.31-1.59l2.84-13a27.9 27.9 0 0 0 4.49 1.2 25.33 25.33 0 0 0 4.16.33q4.38 0 6.73-2.35a18.91 18.91 0 0 0 4-6.51q-5.58-10.94-11.17-24.56a306 306 0 0 1 -10.51-30.58h17.29q1.1 4.27 2.58 9.25t3.06 10.1q1.65 5.09 3.35 9.9t3.24 8.75q1.43-3.94 3-8.75t3-9.9q1.48-5.09 2.86-10.07t2.47-9.25z"/></g></svg>