<svg xmlns="http://www.w3.org/2000/svg" xmlns:xlink="http://www.w3.org/1999/xlink" viewBox="0 0 780.58 216"><defs><style>.a{fill:none;}.b{clip-path:url(#a);}.c{fill:#12879c;}.d{fill:#23a7bf;}.e{fill:#424242;}</style><clipPath id="a" transform="translate(-1 -14.5)"><rect class="a" x="1" y="1" width="243" height="243"/></clipPath></defs><title>logo</title><g class="b"><g class="b"><path class="c" d="M216.42,53.58A20.22,20.22,0,1,0,203.5,34.75a20.49,20.49,0,0,0,.3,3L163.58,69.92a19.62,19.62,0,0,0-14.66,0L108.7,37.75a20,20,0,0,0,.3-3,20.25,20.25,0,1,0-39.75,5.18L26.43,82.75A20.19,20.19,0,0,0,21.25,82a20.59,20.59,0,1,0,19.5,15.07L83.57,54.25a19,19,0,0,0,12.51-.67L136.3,85.75a20,20,0,0,0-.3,3,20.25,20.25,0,1,0,40.5,0,20.56,20.56,0,0,0-.3-3Z" transform="translate(-1 -14.5)"/><path class="d" d="M169.75,149.5h-27a6.75,6.75,0,0,0-6.75,6.75v67.5a6.75,6.75,0,0,0,6.75,6.75h27a6.75,6.75,0,0,0,6.75-6.75v-67.5a6.75,6.75,0,0,0-6.75-6.75" transform="translate(-1 -14.5)"/><path class="d" d="M237.25,95.5h-27a6.75,6.75,0,0,0-6.75,6.75v121.5a6.75,6.75,0,0,0,6.75,6.75h27a6.75,6.75,0,0,0,6.75-6.75V102.25a6.75,6.75,0,0,0-6.75-6.75" transform="translate(-1 -14.5)"/><path class="d" d="M102.25,95.5h-27a6.75,6.75,0,0,0-6.75,6.75v121.5a6.75,6.75,0,0,0,6.75,6.75h27a6.75,6.75,0,0,0,6.75-6.75V102.25a6.75,6.75,0,0,0-6.75-6.75" transform="translate(-1 -14.5)"/><path class="d" d="M34.75,163h-27A6.75,6.75,0,0,0,1,169.75v54a6.75,6.75,0,0,0,6.75,6.75h27a6.75,6.75,0,0,0,6.75-6.75v-54A6.75,6.75,0,0,0,34.75,163" transform="translate(-1 -14.5)"/></g></g><path class="e" d="M310.68,93.54q16.22,0,24.87,5.91t8.65,18.47a25.12,25.12,0,0,1-2.31,11.23,19.41,19.41,0,0,1-6.71,7.63,31.12,31.12,0,0,1-10.74,4.35,67.81,67.81,0,0,1-14.5,1.4h-6.77v26.21H289.63V95.37a67.42,67.42,0,0,1,10.47-1.45Q305.85,93.54,310.68,93.54Zm1,11.71q-5.16,0-8.49.32v25.35h6.55q9.77,0,15-2.74T330,117.81a12.31,12.31,0,0,0-1.4-6.12,10.05,10.05,0,0,0-3.87-3.87,18.23,18.23,0,0,0-5.85-2A42.25,42.25,0,0,0,311.65,105.25Z" transform="translate(-1 -14.5)"/><path class="e" d="M401,168.73q-2.79-4.29-6.44-9t-7.68-9.13q-4-4.4-8.32-8.38a78.07,78.07,0,0,0-8.49-6.87v33.41H356.55V94.29h13.53V125q3.54-3.54,7.41-7.57t7.68-8.16q3.81-4.13,7.25-8t6.23-7h16.22q-3.54,4.08-7.52,8.49t-8.16,8.86q-4.19,4.46-8.43,8.86t-8.32,8.38a99.82,99.82,0,0,1,9.18,8q4.67,4.57,9.18,9.77t8.65,10.85q4.13,5.64,7.57,11.22Z" transform="translate(-1 -14.5)"/><path class="e" d="M492.31,131.46a46.26,46.26,0,0,1-2.85,16.86,34.88,34.88,0,0,1-7.73,12.19,31.91,31.91,0,0,1-11.44,7.36,39.26,39.26,0,0,1-14,2.47,39.7,39.7,0,0,1-14-2.47,31.79,31.79,0,0,1-11.49-7.36A35.48,35.48,0,0,1,423,148.32a45.46,45.46,0,0,1-2.9-16.86,45,45,0,0,1,2.9-16.81,35.38,35.38,0,0,1,7.89-12.19A32.63,32.63,0,0,1,442.47,95a40.09,40.09,0,0,1,27.71,0,31.61,31.61,0,0,1,11.44,7.41,36.21,36.21,0,0,1,7.79,12.19A45,45,0,0,1,492.31,131.46Zm-58.11,0a38.43,38.43,0,0,0,1.5,11.12,24.34,24.34,0,0,0,4.35,8.49,19.7,19.7,0,0,0,6.93,5.42,21.32,21.32,0,0,0,9.24,1.93,21.06,21.06,0,0,0,9.13-1.93,19.74,19.74,0,0,0,6.93-5.42,24.41,24.41,0,0,0,4.35-8.49,41.84,41.84,0,0,0,0-22.23,24.42,24.42,0,0,0-4.35-8.49,19.74,19.74,0,0,0-6.93-5.42,21.06,21.06,0,0,0-9.13-1.93,21.32,21.32,0,0,0-9.24,1.93,19.44,19.44,0,0,0-6.93,5.48,25,25,0,0,0-4.35,8.49A37.89,37.89,0,0,0,434.2,131.46Z" transform="translate(-1 -14.5)"/><path class="e" d="M545.7,168.73H532.16V94.29h47.26v11.6H545.7Z" transform="translate(-1 -14.5)"/><path class="e" d="M628.1,146.49A80.55,80.55,0,0,1,622.57,157a33,33,0,0,1-6.23,7.36,22.54,22.54,0,0,1-7.52,4.3,29,29,0,0,1-9.3,1.4,34.77,34.77,0,0,1-6.5-.64,25.21,25.21,0,0,1-5.53-1.61l2.47-11.17a24.07,24.07,0,0,0,4.32,1.34,22.19,22.19,0,0,0,4.64.48,14.29,14.29,0,0,0,8.26-2.26,20.83,20.83,0,0,0,6.1-7.41q-4.53-7.3-8.68-14.72t-7.71-14.45q-3.56-7-6.53-13.48T585,94.29h15.15q1.72,4.41,3.93,9.45t4.74,10.42q2.53,5.37,5.33,11l5.6,11.17q3.88-9.56,7.44-20.41t6.68-21.59H648.5q-2.59,7.95-5.18,15t-5.12,13.43q-2.54,6.39-5.07,12.24T628.1,146.49Z" transform="translate(-1 -14.5)"/><path class="e" d="M678.89,93.54q16.22,0,24.87,5.91t8.65,18.47a25.12,25.12,0,0,1-2.31,11.23,19.41,19.41,0,0,1-6.71,7.63,31.12,31.12,0,0,1-10.74,4.35,67.81,67.81,0,0,1-14.5,1.4h-6.77v26.21H657.83V95.37a67.43,67.43,0,0,1,10.47-1.45Q674.05,93.54,678.89,93.54Zm1,11.71q-5.16,0-8.49.32v25.35h6.55q9.77,0,15-2.74t5.26-10.37a12.31,12.31,0,0,0-1.4-6.12,10.05,10.05,0,0,0-3.87-3.87,18.23,18.23,0,0,0-5.85-2A42.23,42.23,0,0,0,679.85,105.25Z" transform="translate(-1 -14.5)"/><path class="e" d="M761.19,146.49A80.55,80.55,0,0,1,755.65,157a33,33,0,0,1-6.23,7.36,22.54,22.54,0,0,1-7.52,4.3,29,29,0,0,1-9.3,1.4,34.77,34.77,0,0,1-6.5-.64,25.21,25.21,0,0,1-5.53-1.61L723,156.59a24.07,24.07,0,0,0,4.32,1.34,22.19,22.19,0,0,0,4.64.48,14.29,14.29,0,0,0,8.26-2.26,20.83,20.83,0,0,0,6.1-7.41q-4.53-7.3-8.68-14.72T730,119.59q-3.56-7-6.53-13.48t-5.34-11.82h15.15q1.72,4.41,3.93,9.45t4.74,10.42q2.53,5.37,5.33,11l5.6,11.17q3.88-9.56,7.44-20.41T767,94.29h14.62q-2.59,7.95-5.18,15t-5.12,13.43q-2.54,6.39-5.07,12.24T761.19,146.49Z" transform="translate(-1 -14.5)"/></svg>