<svg xmlns="http://www.w3.org/2000/svg" viewBox="0 0 189 40"><path d="M20.87 4.38C19.25 1.8 17.92-.78 13 .22 3.91 2.06 6.25 11.49 9.46 15.84c2.25 3 4.32 4.41 7.92 4l.32 1a6.22 6.22 0 0 1-4-.16c-1.74-.68-1.26-1.29-3.41-.73a18 18 0 0 0-6.33 2.84C.1 25.61-1.72 30.42 2.15 35a18.84 18.84 0 0 0 5.42 3.76c2.47 1.15 4.69 1.95 6.81 0s1-4.86-.88-6c-1.63-1-5.43-1.18-5.73-3.43 1.11-2.5 7.42-3.82 11-3.82s10 1.33 11 3.82c-.25 1.76-2.8 2.34-4.53 2.9-5 1.63-3.53 7.66.74 7.72 2.2 0 11.95-3.94 11.51-10.6a8.41 8.41 0 0 0-2.22-5.2 12.35 12.35 0 0 0-4.35-3c.6-1.64 1.77-1.82 2.75-6.18 1.24-5.52 0-9.38-5.66-11.19-3.79-1.21-4.9-.31-7.22.51M32 13.22a13.71 13.71 0 0 1-2 5.88 10.23 10.23 0 0 1-4 3.78c-4.73 2.12-7.09-3.2-7.29-7.4-.21-4.42 1.78-9.48 5.65-9.87a8.14 8.14 0 0 1 5.87 1.85c1.39 1.38 2.08 3.04 1.77 5.76z" fill="#e5554e" fill-rule="evenodd"/><text transform="matrix(.99 0 0 1 47.58 31.12)" font-size="34.06" fill="#4375c4" font-family="Comfortaa-Regular,Comfortaa">Эти дни</text></svg>