<svg viewBox="0 0 24 24" xmlns="http://www.w3.org/2000/svg"><path d="m14.2989722 12.176322c-.0470169-.0468983-.0734408-.1105772-.0734408-.1769853s.0264239-.1300871.0734408-.1769853l9.2622298-9.26122987c.5856492-.58647764.5849777-1.53667423-.0014999-2.1223235s-1.5366742-.58497776-2.1223235.00149986l-9.2612299 9.25723021c-.0468982.04701694-.1105772.07344078-.1769853.07344078s-.130087-.02642384-.1769852-.07344078l-9.26122993-9.25723021c-.58564928-.5859254-1.5353982-.58614924-2.1213236-.00049996-.5859254.58564927-.58614924 1.5353982-.00049996 2.1213236l9.26022996 9.26122987c.04701695.0468982.07344079.1105772.07344079.1769853s-.02642384.130087-.07344079.1769853l-9.26022996 9.2622298c-.37884865.3790272-.5267106.9313762-.38788769 1.4489824.13882292.5176062.54324021.9218329 1.06091178 1.0604119.51767158.1385789 1.06995082-.0095434 1.44879947-.3885707l9.26122993-9.2622298c.0468982-.0470169.1105771-.0734408.1769852-.0734408s.1300871.0264239.1769853.0734408l9.2612299 9.2622298c.5856493.5859254 1.5353982.5861492 2.1213236.0005.5859254-.5856493.5861492-1.5353982.0005-2.1213236z" fill-rule="evenodd"/></svg>