<svg viewBox="0 0 24 24" xmlns="http://www.w3.org/2000/svg"><path d="m11.9932649 19.500812c-.6352342.000819-1.2400333-.2833911-1.65984-.78l-9.41856003-11.15199999c-.61913211-.76859096-.53599584-1.91147321.1872475-2.57410938.72324334-.66263618 1.82204752-.60264878 2.4748325.13510938l8.23584003 9.75199999c.0455704.0541548.1113462.0852092.18048.0852092.0691337 0 .1349096-.0310544.18048-.0852092l8.23584-9.75199999c.4135143-.51333692 1.0615094-.75310007 1.6932379-.626511s1.1480791.59966995 1.3492454 1.2361798c.2011663.63650986.0555875 1.33658731-.3804033 1.8293312l-9.41568 11.14799999c-.4205256.497811-1.0261445.7833703-1.66272.784z" fill-rule="evenodd"/></svg>